<!DOCTYPE svg PUBLIC "-//W3C//DTD SVG 1.1//EN" "http://www.w3.org/Graphics/SVG/1.1/DTD/svg11.dtd">
<!-- Uploaded to: SVG Repo, www.svgrepo.com, Transformed by: SVG Repo Mixer Tools -->
<svg version="1.1" id="Layer_1" xmlns="http://www.w3.org/2000/svg" xmlns:xlink="http://www.w3.org/1999/xlink" viewBox="0 0 512 512" xml:space="preserve" width="800px" height="800px" fill="#000000">
<g id="SVGRepo_bgCarrier" stroke-width="0"/>
<g id="SVGRepo_tracerCarrier" stroke-linecap="round" stroke-linejoin="round"/>
<g id="SVGRepo_iconCarrier"> <circle style="fill:#87a3c4;" cx="256" cy="256" r="256"/> <path style="fill:#FFFFFF;" d="M355.712,455.992h-200c-6.6,0-12-5.4-12-12v-376c0-6.6,5.4-12,12-12h200c6.6,0,12,5.4,12,12v376 C367.712,450.592,362.312,455.992,355.712,455.992z"/> <rect x="155.712" y="87.992" width="200" height="320"/> <g> <path style="fill:#999999;" d="M279.504,75.992h-48c-2.2,0-4-1.8-4-4l0,0c0-2.2,1.8-4,4-4h48c2.2,0,4,1.8,4,4l0,0 C283.504,74.192,281.704,75.992,279.504,75.992z"/> <path style="fill:#999999;" d="M279.712,431.992h-48c-2.2,0-4-1.8-4-4l0,0c0-2.2,1.8-4,4-4h48c2.2,0,4,1.8,4,4l0,0 C283.712,430.192,281.912,431.992,279.712,431.992z"/> </g> <rect x="180" y="116.576" style="fill:#DB2B42;" width="152" height="262.84"/> </g>
</svg>